<svg width="10" height="20" viewBox="0 0 10 20" fill="none" xmlns="http://www.w3.org/2000/svg">
<path d="M9.93412 1.25417C9.93383 1.58558 9.80194 1.90331 9.56746 2.1375L3.17412 8.53084C2.98061 8.7243 2.8271 8.95399 2.72237 9.20679C2.61764 9.45958 2.56373 9.73054 2.56373 10.0042C2.56373 10.2778 2.61764 10.5488 2.72237 10.8016C2.8271 11.0544 2.98061 11.284 3.17412 11.4775L9.55912 17.8625C9.78682 18.0983 9.91281 18.414 9.90996 18.7418C9.90712 19.0695 9.77566 19.383 9.5439 19.6148C9.31214 19.8465 8.99862 19.978 8.67087 19.9808C8.34313 19.9837 8.02737 19.8577 7.79162 19.63L1.40662 13.25C0.548093 12.3898 0.065918 11.2241 0.065918 10.0088C0.065918 8.79342 0.548093 7.62772 1.40662 6.7675L7.79995 0.370002C7.97477 0.195072 8.19755 0.0759295 8.4401 0.0276511C8.68265 -0.0206274 8.93408 0.00412773 9.16255 0.098784C9.39103 0.19344 9.5863 0.353743 9.72364 0.559409C9.86098 0.765075 9.93423 1.00686 9.93412 1.25417Z" fill="white"/>
</svg>
